<svg width="24" height="26" viewBox="0 0 24 26" fill="none" xmlns="http://www.w3.org/2000/svg">
<path d="M10.1321 23.8414C4.94671 22.9545 1 18.4378 1 12.9996C1 7.56131 4.94671 3.04456 10.1321 2.15772M10.1321 2.15772L9.00413 4.1598M10.1321 2.15772L8.1645 0.970703M13.8674 2.15772C19.0528 3.04456 22.9995 7.56131 22.9995 12.9996C22.9995 18.4378 19.0529 22.9545 13.8674 23.8414M13.8674 23.8414L14.9954 21.8393M13.8674 23.8414L15.835 25.0284" stroke="#727272" stroke-width="1.6" stroke-miterlimit="10" stroke-linecap="round" stroke-linejoin="round"/>
<path d="M15.8433 11.4898V10.3042C15.8433 8.18161 14.1226 6.46094 12 6.46094C9.87746 6.46094 8.15679 8.18161 8.15679 10.3042V11.4898M12 14.6465V15.6824M15.6983 18.8392H8.30178C7.57851 18.8392 6.99219 18.2529 6.99219 17.5296V12.7994C6.99219 12.0761 7.57851 11.4898 8.30178 11.4898H15.6983C16.4216 11.4898 17.0079 12.0761 17.0079 12.7994V17.5296C17.0079 18.2529 16.4216 18.8392 15.6983 18.8392Z" stroke="#727272" stroke-width="1.6" stroke-miterlimit="10" stroke-linecap="round" stroke-linejoin="round"/>
</svg>
